<svg width="58" height="58" viewBox="0 0 58 58" fill="none" xmlns="http://www.w3.org/2000/svg">
<path d="M29 58C45.0163 58 58 45.0163 58 29C58 12.9837 45.0163 0 29 0C12.9837 0 0 12.9837 0 29C0 45.0163 12.9837 58 29 58Z" fill="#EBBA16"/>
<path d="M44 29L22 44V29.273V14L44 29Z" fill="white"/>
<path d="M22 45C21.84 45 21.679 44.962 21.533 44.884C21.205 44.711 21 44.371 21 44V14C21 13.629 21.205 13.289 21.533 13.116C21.861 12.942 22.257 12.966 22.564 13.174L44.564 28.174C44.836 28.36 45 28.669 45 29C45 29.331 44.836 29.64 44.563 29.826L22.563 44.826C22.394 44.941 22.197 45 22 45ZM23 15.893V42.108L42.225 29L23 15.893Z" fill="white"/>
</svg>
